M48
;Layer_Color=9474304
;FILE_FORMAT=2:5
INCH,LZ
;TYPE=PLATED
T1F00S00C0.01200
T2F00S00C0.03543
%
T01
X03831Y01525
X04211Y01512
X04212Y01475
X04204Y0139
X04341Y01428
X04691Y01557
X05021Y01545
X05246Y01519
X04959Y01596
X04914Y01726
X04776Y01677
X04757Y02053
X04747Y02107
X04851Y02176
X04942Y02315
X0490869Y0248242
X04891Y02816
X0472Y02817
X0507242Y0277442
X04504Y02627
X0455911Y0242372
X0456011Y0236842
Y0230811
X0462142Y0230711
X0468173
X0468073Y0236842
Y0242473
X0462142Y0242572
Y0236842
X04443Y02203
X04327Y0208
X04339Y02432
X03936Y02489
X03884Y02362
X038Y02216
X03719Y02445
X03785Y01885
X03739Y01698
X03898Y0168685
X04052Y0184
X04087Y01566
X04333Y01634
X0455917Y0157483
X0462794Y0168997
X04653Y0184
X04649Y01944
T02
X03806Y01365
X03953Y01322
X04053
X04153
X04395Y0129331
X0460669Y0142528
X0486Y01355
X05223Y01302
X0515Y0155869
X0534994Y0176197
X05359Y01946
Y02046
Y02146
Y02246
Y02346
Y02446
X05236Y02439
X0507638Y0244923
X05157Y0228962
X05167Y0213
X0500738Y02079
X04893Y0188669
X044Y0194469
X0426912Y0185
X04141Y01856
X04226Y0201562
X04052Y02032
Y02132
X03856Y0211811
X03713Y0208911
X0370382Y0221723
X03718Y01893
X03925Y01927
X03988Y02287
X04048Y02458
X0418512Y02452
X03836Y02472
X03726Y01621
M30
