G04 Layer_Physical_Order=2*
G04 Layer_Color=16711680*
%FSLAX25Y25*%
%MOIN*%
G70*
G01*
G75*
%ADD33C,0.02000*%
%ADD35C,0.00800*%
%ADD36C,0.01000*%
%ADD41R,0.05905X0.05905*%
%ADD42R,0.05905X0.05905*%
%ADD43C,0.05905*%
%ADD44C,0.02400*%
%ADD45R,0.19685X0.03937*%
G36*
X520100Y281500D02*
Y266700D01*
X524800Y262000D01*
Y261100D01*
X537800D01*
X544300Y254600D01*
Y124500D01*
X536500Y116700D01*
X360600D01*
X354500Y122800D01*
X354100Y240800D01*
X372700Y259400D01*
X438400D01*
X466900Y287900D01*
X512700D01*
X513200Y288400D01*
X520100Y281500D01*
D02*
G37*
%LPC*%
G36*
X540447Y181650D02*
X529541D01*
Y170744D01*
X540447D01*
Y181650D01*
D02*
G37*
G36*
X378053Y167553D02*
X367147D01*
Y156647D01*
X378053D01*
Y167553D01*
D02*
G37*
G36*
X433300Y167132D02*
X432334Y167005D01*
X431434Y166632D01*
X430661Y166039D01*
X430068Y165266D01*
X429695Y164366D01*
X429568Y163400D01*
X429695Y162434D01*
X430068Y161534D01*
X430661Y160761D01*
X431434Y160168D01*
X431614Y160093D01*
X436721Y154986D01*
X437452Y154425D01*
X438304Y154073D01*
X439218Y153952D01*
X454771D01*
X454951Y153878D01*
X455917Y153751D01*
X456883Y153878D01*
X457783Y154251D01*
X458556Y154844D01*
X459149Y155617D01*
X459522Y156517D01*
X459649Y157483D01*
X459522Y158448D01*
X459149Y159348D01*
X458556Y160121D01*
X457783Y160714D01*
X456883Y161087D01*
X455917Y161214D01*
X454951Y161087D01*
X454771Y161013D01*
X440680D01*
X436607Y165086D01*
X436532Y165266D01*
X435939Y166039D01*
X435166Y166632D01*
X434266Y167005D01*
X433300Y167132D01*
D02*
G37*
G36*
X494753Y194122D02*
X483847D01*
Y183216D01*
X494753D01*
Y194122D01*
D02*
G37*
G36*
X419553Y191053D02*
X408647D01*
Y180147D01*
X419553D01*
Y191053D01*
D02*
G37*
G36*
X432365Y190453D02*
X421459D01*
Y179547D01*
X432365D01*
Y190453D01*
D02*
G37*
G36*
X477600Y171432D02*
X476634Y171305D01*
X475734Y170932D01*
X474961Y170339D01*
X474368Y169566D01*
X473995Y168666D01*
X473914Y168051D01*
X467032Y161168D01*
X466567Y160563D01*
X466275Y159857D01*
X466175Y159100D01*
Y157966D01*
X465868Y157566D01*
X465495Y156666D01*
X465368Y155700D01*
X465495Y154734D01*
X465868Y153834D01*
X466461Y153061D01*
X467234Y152468D01*
X468134Y152095D01*
X469100Y151968D01*
X470066Y152095D01*
X470966Y152468D01*
X471739Y153061D01*
X472332Y153834D01*
X472705Y154734D01*
X472832Y155700D01*
X472705Y156666D01*
X472332Y157566D01*
X472059Y157922D01*
X478181Y164045D01*
X478566Y164095D01*
X479466Y164468D01*
X480239Y165061D01*
X480832Y165834D01*
X481205Y166734D01*
X481332Y167700D01*
X481205Y168666D01*
X480832Y169566D01*
X480239Y170339D01*
X479466Y170932D01*
X478566Y171305D01*
X477600Y171432D01*
D02*
G37*
G36*
X388643Y150268D02*
X363958D01*
Y141332D01*
X388643D01*
Y142875D01*
X398532D01*
X402475Y138932D01*
Y136905D01*
X401411Y136089D01*
X401226Y135848D01*
X400753Y136009D01*
Y137653D01*
X389847D01*
Y126747D01*
X400753D01*
Y128391D01*
X401226Y128552D01*
X401411Y128311D01*
X402550Y127437D01*
X403876Y126888D01*
X405300Y126700D01*
X406723Y126888D01*
X408050Y127437D01*
X409189Y128311D01*
X410019Y129393D01*
X410300Y129424D01*
X410581Y129393D01*
X411411Y128311D01*
X412550Y127437D01*
X413877Y126888D01*
X415300Y126700D01*
X416723Y126888D01*
X418050Y127437D01*
X419189Y128311D01*
X420063Y129450D01*
X420612Y130777D01*
X420800Y132200D01*
X420612Y133624D01*
X420063Y134950D01*
X419189Y136089D01*
X418050Y136963D01*
X416723Y137512D01*
X415300Y137700D01*
X413877Y137512D01*
X412550Y136963D01*
X411411Y136089D01*
X410581Y135007D01*
X410300Y134976D01*
X410019Y135007D01*
X409189Y136089D01*
X408325Y136752D01*
Y140144D01*
X408225Y140901D01*
X407933Y141606D01*
X407468Y142212D01*
X401812Y147868D01*
X401206Y148333D01*
X400501Y148625D01*
X399744Y148725D01*
X388643D01*
Y150268D01*
D02*
G37*
G36*
X491453Y140953D02*
X480547D01*
Y130047D01*
X491453D01*
Y140953D01*
D02*
G37*
G36*
X444953Y134784D02*
X434047D01*
Y123878D01*
X444953D01*
Y134784D01*
D02*
G37*
G36*
X491400Y176332D02*
X490434Y176205D01*
X489534Y175832D01*
X488761Y175239D01*
X488168Y174466D01*
X487795Y173566D01*
X487668Y172600D01*
X487795Y171634D01*
X488168Y170734D01*
X488761Y169961D01*
X489534Y169368D01*
X490434Y168995D01*
X491400Y168868D01*
X492366Y168995D01*
X492546Y169070D01*
X496038D01*
X498570Y166538D01*
Y155646D01*
X498495Y155466D01*
X498368Y154500D01*
X498495Y153534D01*
X498868Y152634D01*
X499461Y151861D01*
X500234Y151268D01*
X501134Y150895D01*
X502100Y150768D01*
X503066Y150895D01*
X503966Y151268D01*
X504739Y151861D01*
X505332Y152634D01*
X505705Y153534D01*
X505832Y154500D01*
X505705Y155466D01*
X505630Y155646D01*
Y168000D01*
X505510Y168914D01*
X505157Y169765D01*
X504596Y170496D01*
X499996Y175096D01*
X499265Y175657D01*
X498414Y176010D01*
X497500Y176130D01*
X492546D01*
X492366Y176205D01*
X491400Y176332D01*
D02*
G37*
G36*
X520453Y161321D02*
X509547D01*
Y150416D01*
X520453D01*
Y161321D01*
D02*
G37*
G36*
X466121Y147981D02*
X455216D01*
Y137075D01*
X466121D01*
Y147981D01*
D02*
G37*
G36*
X377253Y194753D02*
X366347D01*
Y183847D01*
X377253D01*
Y194753D01*
D02*
G37*
G36*
X404253Y234153D02*
X393347D01*
Y223247D01*
X404253D01*
Y234153D01*
D02*
G37*
G36*
X522153Y218453D02*
X511247D01*
Y207547D01*
X522153D01*
Y218453D01*
D02*
G37*
G36*
X391053Y217264D02*
X380147D01*
Y206359D01*
X391053D01*
Y217264D01*
D02*
G37*
G36*
X521153Y234414D02*
X510247D01*
Y223509D01*
X521153D01*
Y234414D01*
D02*
G37*
G36*
X389053Y252653D02*
X378147D01*
Y247425D01*
X374166D01*
X373766Y247732D01*
X372866Y248105D01*
X371900Y248232D01*
X370934Y248105D01*
X370034Y247732D01*
X369261Y247139D01*
X368668Y246366D01*
X368295Y245466D01*
X368168Y244500D01*
X368295Y243534D01*
X368668Y242634D01*
X369261Y241861D01*
X370034Y241268D01*
X370934Y240895D01*
X371900Y240768D01*
X372866Y240895D01*
X373766Y241268D01*
X374166Y241575D01*
X377203D01*
X377999Y240779D01*
X378605Y240314D01*
X379310Y240022D01*
X380067Y239922D01*
X401847D01*
X402604Y240022D01*
X403310Y240314D01*
X403353Y240347D01*
X410253D01*
Y251253D01*
X399347D01*
Y245772D01*
X389053D01*
Y252653D01*
D02*
G37*
G36*
X423965Y250653D02*
X413059D01*
Y239747D01*
X423965D01*
Y250653D01*
D02*
G37*
G36*
X513091Y250376D02*
X502185D01*
Y239471D01*
X513091D01*
Y250376D01*
D02*
G37*
G36*
X428053Y207014D02*
X417147D01*
Y196109D01*
X428053D01*
Y207014D01*
D02*
G37*
G36*
X445453Y199922D02*
X434547D01*
Y189016D01*
X445453D01*
Y199922D01*
D02*
G37*
G36*
X397953Y198153D02*
X387047D01*
Y187247D01*
X397953D01*
Y198153D01*
D02*
G37*
G36*
X405200Y218700D02*
X403777Y218512D01*
X402450Y217963D01*
X401311Y217089D01*
X400437Y215950D01*
X399888Y214623D01*
X399700Y213200D01*
X399888Y211776D01*
X400437Y210450D01*
X401311Y209311D01*
X401552Y209126D01*
X401391Y208653D01*
X399747D01*
Y197747D01*
X410653D01*
Y208653D01*
X409009D01*
X408848Y209126D01*
X409089Y209311D01*
X409963Y210450D01*
X410512Y211776D01*
X410700Y213200D01*
X410512Y214623D01*
X409963Y215950D01*
X409089Y217089D01*
X407950Y217963D01*
X406624Y218512D01*
X405200Y218700D01*
D02*
G37*
G36*
X376753Y214363D02*
X365847D01*
Y203458D01*
X376753D01*
Y214363D01*
D02*
G37*
G36*
X506191Y213353D02*
X495286D01*
Y202447D01*
X506191D01*
Y213353D01*
D02*
G37*
G36*
X535900Y250100D02*
X534477Y249912D01*
X533150Y249363D01*
X532011Y248489D01*
X531137Y247350D01*
X530588Y246024D01*
X530400Y244600D01*
X530588Y243177D01*
X531137Y241850D01*
X532011Y240711D01*
X532252Y240526D01*
X532091Y240053D01*
X530447D01*
Y229147D01*
X532091D01*
X532252Y228674D01*
X532011Y228489D01*
X531137Y227350D01*
X530588Y226024D01*
X530400Y224600D01*
X530588Y223177D01*
X531137Y221850D01*
X532011Y220711D01*
X533093Y219881D01*
X533124Y219600D01*
X533093Y219319D01*
X532011Y218489D01*
X531137Y217350D01*
X530588Y216023D01*
X530400Y214600D01*
X530588Y213176D01*
X531137Y211850D01*
X532011Y210711D01*
X533093Y209881D01*
X533124Y209600D01*
X533093Y209319D01*
X532011Y208489D01*
X531137Y207350D01*
X530588Y206024D01*
X530400Y204600D01*
X530588Y203176D01*
X531137Y201850D01*
X532011Y200711D01*
X533150Y199837D01*
X534477Y199288D01*
X535900Y199100D01*
X537323Y199288D01*
X538650Y199837D01*
X539789Y200711D01*
X540663Y201850D01*
X541212Y203176D01*
X541400Y204600D01*
X541212Y206024D01*
X540663Y207350D01*
X539789Y208489D01*
X538707Y209319D01*
X538676Y209600D01*
X538707Y209881D01*
X539789Y210711D01*
X540663Y211850D01*
X541212Y213176D01*
X541400Y214600D01*
X541212Y216023D01*
X540663Y217350D01*
X539789Y218489D01*
X538707Y219319D01*
X538676Y219600D01*
X538707Y219881D01*
X539789Y220711D01*
X540663Y221850D01*
X541212Y223177D01*
X541400Y224600D01*
X541212Y226024D01*
X540663Y227350D01*
X539789Y228489D01*
X539548Y228674D01*
X539709Y229147D01*
X541353D01*
Y240053D01*
X539709D01*
X539548Y240526D01*
X539789Y240711D01*
X540663Y241850D01*
X541212Y243177D01*
X541400Y244600D01*
X541212Y246024D01*
X540663Y247350D01*
X539789Y248489D01*
X538650Y249363D01*
X537323Y249912D01*
X535900Y250100D01*
D02*
G37*
%LPD*%
D33*
X460117Y156517D02*
X460400Y156800D01*
X462700Y184100D02*
X462800Y184000D01*
X465300D01*
X502100Y154500D02*
Y168000D01*
X439218Y157483D02*
X455917D01*
X433300Y163400D02*
X439218Y157483D01*
X491400Y172600D02*
X497500D01*
X502100Y168000D01*
D35*
X405300Y132200D02*
X405400Y132300D01*
X376800Y145800D02*
X399744D01*
X405400Y132300D02*
Y140144D01*
X399744Y145800D02*
X405400Y140144D01*
X371900Y244500D02*
X378415D01*
X380067Y242847D01*
X401847D01*
X404800Y245800D01*
X469100Y159100D02*
X477600Y167600D01*
X469100Y155700D02*
Y159100D01*
X477600Y167600D02*
Y167700D01*
D36*
X437600Y266200D02*
X462500Y291100D01*
X463000D02*
X524900D01*
X524400Y266400D02*
Y290500D01*
X524000Y266600D02*
X551400D01*
X551700Y110100D02*
Y266500D01*
X348500Y110801D02*
X551800Y110400D01*
X348300Y111000D02*
Y266400D01*
X348200Y266000D02*
X436800D01*
D41*
X422600Y201562D02*
D03*
X534994Y176197D02*
D03*
X515700Y228962D02*
D03*
X426912Y185000D02*
D03*
X414100Y185600D02*
D03*
X392500Y192700D02*
D03*
X371300Y208911D02*
D03*
X372600Y162100D02*
D03*
X398800Y228700D02*
D03*
X371800Y189300D02*
D03*
X489300Y188669D02*
D03*
X385600Y211811D02*
D03*
X418512Y245200D02*
D03*
X383600Y247200D02*
D03*
X404800Y245800D02*
D03*
X507638Y244923D02*
D03*
X515000Y155869D02*
D03*
X440000Y194469D02*
D03*
X380600Y136500D02*
D03*
X370382Y221723D02*
D03*
X522300Y130200D02*
D03*
X395300Y132200D02*
D03*
X460669Y142528D02*
D03*
X486000Y135500D02*
D03*
D42*
X516700Y213000D02*
D03*
X405200Y203200D02*
D03*
X500738Y207900D02*
D03*
X439500Y129331D02*
D03*
X535900Y234600D02*
D03*
X523600Y243900D02*
D03*
D43*
X405200Y213200D02*
D03*
X415300Y132200D02*
D03*
X405300D02*
D03*
X535900Y194600D02*
D03*
Y244600D02*
D03*
Y224600D02*
D03*
Y214600D02*
D03*
Y204600D02*
D03*
D44*
X444300Y220300D02*
D03*
X433900Y243200D02*
D03*
X472000Y281700D02*
D03*
X432700Y208000D02*
D03*
X475700Y205300D02*
D03*
X485100Y217600D02*
D03*
X507242Y277442D02*
D03*
X373900Y169800D02*
D03*
X489100Y281600D02*
D03*
X383100Y152500D02*
D03*
X378500Y188500D02*
D03*
X524600Y151900D02*
D03*
X490869Y248242D02*
D03*
X371900Y244500D02*
D03*
X380000Y221600D02*
D03*
X388400Y236200D02*
D03*
X450400Y262700D02*
D03*
X465300Y184000D02*
D03*
X469100Y155700D02*
D03*
X408700Y156600D02*
D03*
X420400Y139000D02*
D03*
X502100Y154500D02*
D03*
X495900Y159600D02*
D03*
X455917Y157483D02*
D03*
X433300Y163400D02*
D03*
X405200Y184000D02*
D03*
X434100Y142800D02*
D03*
X464900Y194400D02*
D03*
X491400Y172600D02*
D03*
X477600Y167700D02*
D03*
X494200Y231500D02*
D03*
X474700Y210700D02*
D03*
X393600Y248900D02*
D03*
X462794Y168997D02*
D03*
X389800Y168685D02*
D03*
X421200Y147500D02*
D03*
X421100Y151200D02*
D03*
X455911Y242372D02*
D03*
X462142Y242572D02*
D03*
X468073Y242473D02*
D03*
X456011Y236842D02*
D03*
X462142D02*
D03*
X468073D02*
D03*
X456011Y230811D02*
D03*
X462142Y230711D02*
D03*
X468173D02*
D03*
D45*
X376300Y145800D02*
D03*
Y171300D02*
D03*
M02*
