G04 Layer_Physical_Order=1*
G04 Layer_Color=255*
%FSLAX25Y25*%
%MOIN*%
G70*
G01*
G75*
%ADD10R,0.03543X0.03150*%
%ADD11R,0.03150X0.03543*%
%ADD12R,0.04134X0.03937*%
%ADD13R,0.08661X0.04134*%
%ADD14O,0.01181X0.02953*%
%ADD15O,0.02953X0.01181*%
%ADD16O,0.05709X0.02362*%
%ADD17R,0.05315X0.01575*%
%ADD18R,0.07480X0.07480*%
%ADD19R,0.06299X0.08268*%
%ADD20R,0.08000X0.12200*%
%ADD21R,0.03347X0.01102*%
%ADD22R,0.01102X0.03347*%
%ADD23R,0.00984X0.03347*%
%ADD24R,0.02756X0.00787*%
%ADD25R,0.03937X0.06299*%
%ADD26R,0.03100X0.01200*%
%ADD27R,0.06100X0.09400*%
%ADD28R,0.03937X0.07087*%
%ADD29R,0.01968X0.01968*%
%ADD30R,0.20866X0.20866*%
%ADD31O,0.00984X0.03740*%
%ADD32O,0.03740X0.00984*%
%ADD33C,0.02000*%
%ADD34C,0.01600*%
%ADD35C,0.00800*%
%ADD36C,0.01000*%
%ADD37C,0.01800*%
%ADD38C,0.01200*%
%ADD39C,0.01201*%
%ADD40C,0.01221*%
%ADD41R,0.05905X0.05905*%
%ADD42R,0.05905X0.05905*%
%ADD43C,0.05905*%
%ADD44C,0.02400*%
G36*
X475481Y219774D02*
Y215794D01*
X474981Y215559D01*
X474270Y215854D01*
X473356Y215974D01*
X473072D01*
Y216519D01*
X464528D01*
Y215972D01*
X461956D01*
Y218953D01*
X462456Y219247D01*
X463126Y219159D01*
X463907Y219261D01*
X464110Y219345D01*
X464314Y219261D01*
X465095Y219159D01*
X465876Y219261D01*
X466079Y219345D01*
X466282Y219261D01*
X467063Y219159D01*
X467844Y219261D01*
X468047Y219345D01*
X468251Y219261D01*
X469032Y219159D01*
X469813Y219261D01*
X470016Y219345D01*
X470219Y219261D01*
X471000Y219159D01*
X471781Y219261D01*
X471984Y219345D01*
X472188Y219261D01*
X472969Y219159D01*
X473750Y219261D01*
X474477Y219563D01*
X474981Y219949D01*
X475481Y219774D01*
D02*
G37*
G36*
X409685Y219286D02*
Y215581D01*
X417110D01*
Y214557D01*
X426047D01*
Y219011D01*
X426491Y219454D01*
X426953Y219263D01*
Y214557D01*
X435269D01*
Y211572D01*
X435069D01*
Y211411D01*
X434621Y211190D01*
X434566Y211232D01*
X433666Y211605D01*
X432700Y211732D01*
X431734Y211605D01*
X430834Y211232D01*
X430061Y210639D01*
X429468Y209866D01*
X429095Y208966D01*
X428968Y208000D01*
X429095Y207034D01*
X429468Y206134D01*
X430061Y205361D01*
X430834Y204768D01*
X431087Y204663D01*
X431635Y204243D01*
X432486Y203890D01*
X433400Y203770D01*
X433400Y203770D01*
X435069D01*
Y203028D01*
X443219D01*
Y208754D01*
X443419D01*
Y215535D01*
X443881Y215727D01*
X444104Y215504D01*
X444835Y214943D01*
X445686Y214590D01*
X446600Y214470D01*
X446769D01*
Y213728D01*
X452469D01*
Y207428D01*
X458481D01*
Y201921D01*
X449763D01*
Y200622D01*
X448594D01*
X447837Y200522D01*
X447131Y200230D01*
X446525Y199765D01*
X445915Y199154D01*
X445453Y199346D01*
Y199922D01*
X434547D01*
Y189016D01*
X435569D01*
Y185262D01*
X433332Y183024D01*
X432867Y182418D01*
X432865Y182413D01*
X432365Y182513D01*
Y190453D01*
X425596D01*
X410730Y205318D01*
X410653Y205378D01*
Y208653D01*
X402202D01*
X401950Y209153D01*
X402173Y209690D01*
X402273Y210447D01*
Y213842D01*
X403109Y214678D01*
X403212D01*
X403969Y214778D01*
X404674Y215070D01*
X405280Y215535D01*
X409223Y219478D01*
X409685Y219286D01*
D02*
G37*
G36*
X399747Y206057D02*
Y203434D01*
X394466Y198153D01*
X387264D01*
X386825Y198725D01*
X383575Y201975D01*
X383623Y202312D01*
X383678Y202475D01*
X394300D01*
X395057Y202575D01*
X395762Y202867D01*
X396368Y203332D01*
X399285Y206249D01*
X399747Y206057D01*
D02*
G37*
G36*
X519500Y281100D02*
Y266200D01*
X519800D01*
X526200Y259800D01*
X539100D01*
X544200Y254700D01*
Y164898D01*
X539551D01*
Y162339D01*
X530638D01*
X530431Y162839D01*
X534862Y167270D01*
X538331D01*
X539245Y167390D01*
X540096Y167743D01*
X540827Y168304D01*
X542443Y169919D01*
X543004Y170651D01*
X543356Y171502D01*
X543477Y172416D01*
Y179978D01*
X543356Y180892D01*
X543004Y181743D01*
X542443Y182474D01*
X539224Y185693D01*
X538493Y186254D01*
X537641Y186607D01*
X536728Y186727D01*
X529621D01*
X529343Y187143D01*
X529382Y187236D01*
X529508Y188197D01*
X529382Y189158D01*
X529011Y190053D01*
X528421Y190822D01*
X527652Y191412D01*
Y192569D01*
X527532Y193482D01*
X527179Y194334D01*
X526618Y195065D01*
X526005Y195535D01*
X523115Y198425D01*
X522405Y198970D01*
X521578Y199312D01*
X520690Y199429D01*
X487066D01*
X486300Y199530D01*
X475506D01*
X474572Y200465D01*
Y201233D01*
X474582Y201264D01*
X475072Y201651D01*
X475700Y201568D01*
X476666Y201695D01*
X477566Y202068D01*
X478339Y202661D01*
X478932Y203434D01*
X479305Y204334D01*
X479432Y205300D01*
X479305Y206266D01*
X478932Y207166D01*
X478339Y207939D01*
X477650Y208467D01*
X477932Y208834D01*
X478305Y209734D01*
X478432Y210700D01*
X478305Y211666D01*
X477932Y212566D01*
X477822Y212710D01*
X477757Y212865D01*
X477669Y212980D01*
X477890Y213428D01*
X478776D01*
X479556Y213326D01*
X480336Y213428D01*
X483631D01*
Y213663D01*
X484131Y213997D01*
X484134Y213995D01*
X485100Y213868D01*
X486066Y213995D01*
X486966Y214368D01*
X487739Y214961D01*
X488332Y215734D01*
X488705Y216634D01*
X488832Y217600D01*
X488705Y218566D01*
X488332Y219466D01*
X487739Y220239D01*
X486966Y220832D01*
X486066Y221205D01*
X486175Y221675D01*
X491888D01*
X497813Y215750D01*
Y213353D01*
X495286D01*
Y202447D01*
X506191D01*
Y204975D01*
X530071D01*
X530400Y204600D01*
X530588Y203176D01*
X531137Y201850D01*
X532011Y200711D01*
X533093Y199881D01*
X533124Y199600D01*
X533093Y199319D01*
X532011Y198489D01*
X531137Y197350D01*
X530588Y196023D01*
X530400Y194600D01*
X530588Y193176D01*
X531137Y191850D01*
X532011Y190711D01*
X533150Y189837D01*
X534477Y189288D01*
X535900Y189100D01*
X537323Y189288D01*
X538650Y189837D01*
X539789Y190711D01*
X540663Y191850D01*
X541212Y193176D01*
X541400Y194600D01*
X541212Y196023D01*
X540663Y197350D01*
X539789Y198489D01*
X538707Y199319D01*
X538676Y199600D01*
X538707Y199881D01*
X539789Y200711D01*
X540663Y201850D01*
X541212Y203176D01*
X541400Y204600D01*
X541212Y206024D01*
X540663Y207350D01*
X539789Y208489D01*
X538707Y209319D01*
X538676Y209600D01*
X538707Y209881D01*
X539789Y210711D01*
X540663Y211850D01*
X541212Y213176D01*
X541400Y214600D01*
X541212Y216023D01*
X540663Y217350D01*
X539789Y218489D01*
X538707Y219319D01*
X538676Y219600D01*
X538707Y219881D01*
X539789Y220711D01*
X540663Y221850D01*
X541212Y223177D01*
X541400Y224600D01*
X541212Y226024D01*
X540663Y227350D01*
X539789Y228489D01*
X539548Y228674D01*
X539709Y229147D01*
X541353D01*
Y240053D01*
X530447D01*
Y237525D01*
X521512D01*
X521051Y237985D01*
X521243Y238447D01*
X529052D01*
Y249353D01*
X518147D01*
Y241543D01*
X517685Y241352D01*
X513091Y245946D01*
Y250376D01*
X502185D01*
Y247848D01*
X500491D01*
X494429Y253910D01*
X493823Y254375D01*
X493118Y254667D01*
X492360Y254767D01*
X479602D01*
X478845Y254667D01*
X478140Y254375D01*
X477534Y253910D01*
X476275Y252651D01*
X475685Y252768D01*
X475582Y253016D01*
X475103Y253641D01*
X474477Y254121D01*
X473750Y254422D01*
X472969Y254525D01*
X472188Y254422D01*
X471984Y254338D01*
X471781Y254422D01*
X471000Y254525D01*
X470219Y254422D01*
X470016Y254338D01*
X469813Y254422D01*
X469032Y254525D01*
X468520Y254458D01*
X468057Y254795D01*
X468020Y254868D01*
Y260386D01*
X475073D01*
Y260428D01*
X485311D01*
Y260286D01*
X496671D01*
Y260190D01*
X500411D01*
Y254284D01*
X514073D01*
Y263418D01*
X505805D01*
Y265898D01*
X514073D01*
Y275032D01*
X510772D01*
Y276296D01*
X510847Y276476D01*
X510974Y277442D01*
X510847Y278408D01*
X510474Y279308D01*
X509881Y280081D01*
X509108Y280674D01*
X508208Y281047D01*
X507242Y281174D01*
X506276Y281047D01*
X505376Y280674D01*
X504603Y280081D01*
X504010Y279308D01*
X503637Y278408D01*
X503510Y277442D01*
X503637Y276476D01*
X503712Y276296D01*
Y275032D01*
X500411D01*
Y269127D01*
X496671D01*
Y268830D01*
X493272D01*
Y272281D01*
Y280431D01*
X493121D01*
X492744Y280931D01*
X492832Y281600D01*
X492705Y282566D01*
X492332Y283466D01*
X491739Y284239D01*
X490966Y284832D01*
X490066Y285205D01*
X489100Y285332D01*
X488134Y285205D01*
X487234Y284832D01*
X486461Y284239D01*
X485868Y283466D01*
X485495Y282566D01*
X485368Y281600D01*
X485456Y280931D01*
X485100Y280458D01*
X485038Y280431D01*
X484728D01*
Y272281D01*
Y268972D01*
X475672D01*
Y272281D01*
Y280431D01*
X475672Y280431D01*
X475631Y280931D01*
X475732Y281700D01*
X475605Y282666D01*
X475232Y283566D01*
X474639Y284339D01*
X473866Y284932D01*
X472966Y285305D01*
X472000Y285432D01*
X471034Y285305D01*
X470134Y284932D01*
X469361Y284339D01*
X468768Y283566D01*
X468395Y282666D01*
X468268Y281700D01*
X468369Y280931D01*
X468091Y280512D01*
X467980Y280431D01*
X467128D01*
Y272281D01*
Y268930D01*
X461411D01*
Y267414D01*
X461372Y266931D01*
X460911Y266931D01*
X452828D01*
Y266386D01*
X450748D01*
X450400Y266432D01*
X449434Y266305D01*
X448534Y265932D01*
X447761Y265339D01*
X447168Y264566D01*
X446795Y263666D01*
X446668Y262700D01*
X446795Y261734D01*
X447168Y260834D01*
X447761Y260061D01*
X448534Y259468D01*
X449434Y259095D01*
X450400Y258968D01*
X451366Y259095D01*
X451922Y259326D01*
X452828D01*
Y258781D01*
X461372D01*
Y259903D01*
X461395Y260195D01*
X461905Y260297D01*
X462170Y260033D01*
Y254822D01*
X461670Y254458D01*
X461158Y254525D01*
X460377Y254422D01*
X460173Y254338D01*
X459970Y254422D01*
X459189Y254525D01*
X458408Y254422D01*
X458205Y254338D01*
X458002Y254422D01*
X457221Y254525D01*
X456439Y254422D01*
X456236Y254338D01*
X456033Y254422D01*
X455629Y254475D01*
X455352Y254837D01*
X453821Y256368D01*
X453215Y256833D01*
X452509Y257125D01*
X451752Y257225D01*
X390700D01*
X389943Y257125D01*
X389237Y256833D01*
X388632Y256368D01*
X384916Y252653D01*
X378147D01*
Y241747D01*
X381746D01*
Y237315D01*
X381144Y237066D01*
X380498Y236570D01*
X380039Y236540D01*
X376172Y240407D01*
Y243531D01*
X376009D01*
X375570Y244031D01*
X375632Y244500D01*
X375505Y245466D01*
X375132Y246366D01*
X374539Y247139D01*
X373766Y247732D01*
X372866Y248105D01*
X371900Y248232D01*
X370934Y248105D01*
X370034Y247732D01*
X369261Y247139D01*
X368668Y246366D01*
X368295Y245466D01*
X368168Y244500D01*
X368230Y244031D01*
X367791Y243531D01*
X367628D01*
Y235381D01*
Y229869D01*
X368370D01*
Y227175D01*
X364930D01*
Y216270D01*
X368255D01*
X368589Y215770D01*
X368475Y215494D01*
X368375Y214737D01*
Y214363D01*
X365847D01*
Y203458D01*
X366124D01*
X366157Y202958D01*
X365812Y202912D01*
X364985Y202570D01*
X364275Y202025D01*
X361475Y199225D01*
X360930Y198515D01*
X360588Y197688D01*
X360471Y196800D01*
Y144400D01*
X360588Y143512D01*
X360930Y142685D01*
X361475Y141975D01*
X382475Y120975D01*
X383185Y120430D01*
X384012Y120088D01*
X384900Y119971D01*
X456701D01*
X456788Y119935D01*
X457676Y119818D01*
X458563Y119935D01*
X458650Y119971D01*
X463421D01*
X464187Y119870D01*
X473382D01*
X474148Y119971D01*
X491768D01*
X492534Y119870D01*
X493448Y119990D01*
X494299Y120343D01*
X495030Y120904D01*
X504466Y130340D01*
X504928Y130149D01*
Y128581D01*
Y123069D01*
X513472D01*
Y126184D01*
X514357Y127070D01*
X516847D01*
Y124747D01*
X527753D01*
Y134823D01*
X530102D01*
Y124661D01*
X539551D01*
Y122102D01*
X541649D01*
X541841Y121641D01*
X536700Y116500D01*
X361500D01*
X354400Y123600D01*
Y242200D01*
X356200D01*
X373400Y259400D01*
X438800D01*
X466700Y287300D01*
X513300D01*
X519500Y281100D01*
D02*
G37*
G36*
X497211Y242855D02*
X497817Y242390D01*
X498522Y242098D01*
X499279Y241998D01*
X502185D01*
Y239471D01*
X511293D01*
X515887Y234876D01*
X515696Y234414D01*
X510247D01*
Y230625D01*
X503219D01*
Y235772D01*
X496775D01*
Y242472D01*
X488625D01*
X488499Y242919D01*
Y243329D01*
X488545Y243678D01*
Y244675D01*
X489811D01*
X489903Y244637D01*
X490869Y244510D01*
X491835Y244637D01*
X492735Y245010D01*
X493508Y245603D01*
X493692Y245842D01*
X494191Y245875D01*
X497211Y242855D01*
D02*
G37*
G36*
X488499Y240194D02*
X488625Y239746D01*
Y235772D01*
X484937D01*
Y230625D01*
X480707D01*
X479777Y231555D01*
X479825Y231921D01*
X479722Y232702D01*
X479638Y232905D01*
X479722Y233108D01*
X479825Y233889D01*
X479722Y234670D01*
X479638Y234873D01*
X479722Y235076D01*
X479825Y235858D01*
X479722Y236639D01*
X479638Y236842D01*
X479722Y237045D01*
X479825Y237826D01*
X479722Y238607D01*
X479638Y238810D01*
X479722Y239014D01*
X479825Y239795D01*
X479822Y239818D01*
X480152Y240194D01*
X484666D01*
X485015Y240148D01*
X485364Y240194D01*
X488499D01*
D02*
G37*
D10*
X509200Y132656D02*
D03*
Y127144D02*
D03*
X408900Y149756D02*
D03*
Y144244D02*
D03*
X404319Y173144D02*
D03*
Y178656D02*
D03*
X371900Y239456D02*
D03*
Y233944D02*
D03*
X470300Y205256D02*
D03*
Y199744D02*
D03*
X468800Y217956D02*
D03*
Y212444D02*
D03*
X471400Y270844D02*
D03*
Y276356D02*
D03*
X429342Y229438D02*
D03*
Y234949D02*
D03*
X393900Y237944D02*
D03*
Y243456D02*
D03*
X413957Y219656D02*
D03*
Y214144D02*
D03*
X457100Y257344D02*
D03*
Y262856D02*
D03*
X413800Y167128D02*
D03*
Y161616D02*
D03*
X489000Y270844D02*
D03*
Y276356D02*
D03*
X450900Y130744D02*
D03*
Y136256D02*
D03*
X495400Y145744D02*
D03*
Y151256D02*
D03*
X426800Y139256D02*
D03*
Y133744D02*
D03*
X451200Y192056D02*
D03*
Y186544D02*
D03*
X457500Y192056D02*
D03*
Y186544D02*
D03*
D11*
X485256Y173000D02*
D03*
X479744D02*
D03*
X482644Y179400D02*
D03*
X488156D02*
D03*
X483500Y231500D02*
D03*
X489012D02*
D03*
X398791Y178444D02*
D03*
X393279D02*
D03*
X381344Y182300D02*
D03*
X386856D02*
D03*
X488050Y166097D02*
D03*
X482538D02*
D03*
X514844Y146400D02*
D03*
X520356D02*
D03*
X445156Y185200D02*
D03*
X439644D02*
D03*
X439538Y178897D02*
D03*
X445050D02*
D03*
X453838Y197649D02*
D03*
X459349D02*
D03*
X457044Y203375D02*
D03*
X462556D02*
D03*
X456544Y211700D02*
D03*
X462056D02*
D03*
X444856Y213025D02*
D03*
X439344D02*
D03*
X444656Y207300D02*
D03*
X439144D02*
D03*
X456356Y218000D02*
D03*
X450844D02*
D03*
X474044Y217700D02*
D03*
X479556D02*
D03*
X442898Y231942D02*
D03*
X437386D02*
D03*
X504656Y231500D02*
D03*
X499144D02*
D03*
X487188Y238200D02*
D03*
X492700D02*
D03*
X470998Y264658D02*
D03*
X465486D02*
D03*
X443056Y238500D02*
D03*
X437544D02*
D03*
X402044Y166931D02*
D03*
X407556D02*
D03*
X404056Y159944D02*
D03*
X398544D02*
D03*
X376756Y152500D02*
D03*
X371244D02*
D03*
X370044Y175444D02*
D03*
X375556D02*
D03*
X382044Y159944D02*
D03*
X387556D02*
D03*
X475656Y137600D02*
D03*
X470144D02*
D03*
X455844Y151800D02*
D03*
X461356D02*
D03*
X437944Y138600D02*
D03*
X443456D02*
D03*
X439444Y145900D02*
D03*
X444956D02*
D03*
X440244Y153000D02*
D03*
X445756D02*
D03*
X489386Y264558D02*
D03*
X494898D02*
D03*
X482856Y264700D02*
D03*
X477344D02*
D03*
X475256Y149800D02*
D03*
X469744D02*
D03*
X475656Y143400D02*
D03*
X470144D02*
D03*
X489756Y151500D02*
D03*
X484244D02*
D03*
X487250Y157597D02*
D03*
X481738D02*
D03*
X439244Y159800D02*
D03*
X444756D02*
D03*
X470044Y129800D02*
D03*
X475556D02*
D03*
X439444Y172200D02*
D03*
X444956D02*
D03*
X439444Y166474D02*
D03*
X444956D02*
D03*
D12*
X501238Y264658D02*
D03*
D13*
X507242Y270465D02*
D03*
Y258851D02*
D03*
D14*
X384671Y225803D02*
D03*
X382702D02*
D03*
Y233480D02*
D03*
X384671D02*
D03*
D15*
X379848Y226689D02*
D03*
Y228658D02*
D03*
Y230626D02*
D03*
Y232595D02*
D03*
X387525D02*
D03*
Y230626D02*
D03*
Y228658D02*
D03*
Y226689D02*
D03*
D16*
X502665Y188197D02*
D03*
Y183197D02*
D03*
Y178197D02*
D03*
Y173197D02*
D03*
X524122Y188197D02*
D03*
Y183197D02*
D03*
Y178197D02*
D03*
Y173197D02*
D03*
D17*
X535358Y138382D02*
D03*
Y140941D02*
D03*
Y143500D02*
D03*
Y146059D02*
D03*
Y148618D02*
D03*
D18*
X545791Y138776D02*
D03*
Y148224D02*
D03*
Y128343D02*
D03*
Y158657D02*
D03*
D19*
X535752Y131295D02*
D03*
Y155705D02*
D03*
D20*
X462794Y168997D02*
D03*
D21*
X455917Y162100D02*
D03*
Y175880D02*
D03*
Y164068D02*
D03*
Y166037D02*
D03*
Y168006D02*
D03*
Y169974D02*
D03*
Y171942D02*
D03*
Y173911D02*
D03*
X469500Y162100D02*
D03*
Y175880D02*
D03*
Y164068D02*
D03*
Y166037D02*
D03*
Y168006D02*
D03*
Y169974D02*
D03*
Y171942D02*
D03*
Y173911D02*
D03*
D22*
X459772Y160242D02*
D03*
X465665D02*
D03*
X459752Y177750D02*
D03*
X465658D02*
D03*
D23*
X461694Y160297D02*
D03*
X463794D02*
D03*
X463694Y177797D02*
D03*
X461694D02*
D03*
D24*
X385666Y171734D02*
D03*
Y170160D02*
D03*
Y168585D02*
D03*
Y167010D02*
D03*
Y165435D02*
D03*
X393934D02*
D03*
Y167010D02*
D03*
Y168585D02*
D03*
Y170160D02*
D03*
Y171734D02*
D03*
D25*
X389800Y168585D02*
D03*
D26*
X415300Y152300D02*
D03*
Y150300D02*
D03*
Y148300D02*
D03*
Y146300D02*
D03*
X426900D02*
D03*
Y148300D02*
D03*
Y150300D02*
D03*
Y152300D02*
D03*
D27*
X421100Y149300D02*
D03*
D28*
X431421Y220600D02*
D03*
X421579D02*
D03*
D29*
X485015Y248206D02*
D03*
Y243678D02*
D03*
X481669Y248206D02*
D03*
Y243678D02*
D03*
D30*
X462142Y236842D02*
D03*
D31*
X472969Y223554D02*
D03*
X471000D02*
D03*
X469032D02*
D03*
X467063D02*
D03*
X465095D02*
D03*
X463126D02*
D03*
X461158D02*
D03*
X459189D02*
D03*
X457221D02*
D03*
X455252D02*
D03*
X453284D02*
D03*
X451315D02*
D03*
Y250129D02*
D03*
X453284D02*
D03*
X455252D02*
D03*
X457221D02*
D03*
X459189D02*
D03*
X461158D02*
D03*
X463126D02*
D03*
X465095D02*
D03*
X467063D02*
D03*
X469032D02*
D03*
X471000D02*
D03*
X472969D02*
D03*
D32*
X448854Y226015D02*
D03*
Y227983D02*
D03*
Y229952D02*
D03*
Y231921D02*
D03*
Y233889D02*
D03*
Y235858D02*
D03*
Y237826D02*
D03*
Y239795D02*
D03*
Y241763D02*
D03*
Y243732D02*
D03*
Y245700D02*
D03*
Y247669D02*
D03*
X475429D02*
D03*
Y245700D02*
D03*
Y243732D02*
D03*
Y241763D02*
D03*
Y239795D02*
D03*
Y237826D02*
D03*
Y235858D02*
D03*
Y233889D02*
D03*
Y231921D02*
D03*
Y229952D02*
D03*
Y227983D02*
D03*
Y226015D02*
D03*
D33*
X521900Y130600D02*
X522300Y130200D01*
X512895Y130600D02*
X521900D01*
X509439Y127144D02*
X512895Y130600D01*
X509200Y127144D02*
X509439D01*
X531486Y138354D02*
X531515Y138382D01*
X535358D01*
X531968Y148518D02*
X531997Y148546D01*
X535286D01*
X535358Y148618D01*
X474044Y196000D02*
X486300D01*
X470300Y199744D02*
X474044Y196000D01*
X417351Y127247D02*
X417404Y127300D01*
X403249Y127247D02*
X417351D01*
X398296Y132200D02*
X403249Y127247D01*
X395300Y132200D02*
X398296D01*
X395300D02*
Y136200D01*
X402553Y190553D02*
X417881D01*
X421700Y186734D01*
X444300Y220300D02*
X446600Y218000D01*
X450844D01*
Y223307D02*
X451091Y223554D01*
X450844Y218000D02*
Y223307D01*
X433900Y242144D02*
Y243200D01*
Y242144D02*
X437544Y238500D01*
X472000Y276412D02*
Y281700D01*
X471200Y275612D02*
X472000Y276412D01*
X432700Y208000D02*
X433400Y207300D01*
X439144D01*
X439344Y207500D01*
Y213025D01*
X468419Y203375D02*
X470300Y205256D01*
X462556Y203375D02*
X468419D01*
X475656Y205256D02*
X475700Y205300D01*
X470300Y205256D02*
X475656D01*
X479556Y217700D02*
X485000D01*
X485100Y217600D01*
X502665Y188197D02*
X504784Y186078D01*
X507220D01*
Y183642D02*
Y186078D01*
Y183642D02*
X507500Y183362D01*
Y180600D02*
Y183362D01*
X505097Y178197D02*
X507500Y180600D01*
X502665Y178197D02*
X505097D01*
X469500Y176162D02*
Y179200D01*
X486300Y196000D01*
X437386Y238342D02*
X437544Y238500D01*
X437386Y231942D02*
Y238342D01*
X507242Y270465D02*
Y277442D01*
X489058Y274998D02*
X489572Y275512D01*
X437386Y231942D02*
X437586Y232142D01*
X370044Y173656D02*
X373900Y169800D01*
X376756Y152500D02*
X383100D01*
X383100Y152500D01*
X399556Y178444D02*
X404988D01*
X370044Y173656D02*
Y175444D01*
X482538Y165858D02*
X486599Y161797D01*
X482538Y158397D02*
Y165858D01*
Y166097D01*
X394044Y178444D02*
Y182044D01*
X421700Y167200D02*
Y186734D01*
X416188Y161688D02*
X421700Y167200D01*
X404056Y154056D02*
Y159944D01*
X400400Y150400D02*
X404056Y154056D01*
X399100Y150400D02*
X400400D01*
X399100Y140000D02*
Y150400D01*
X395300Y136200D02*
X399100Y140000D01*
X524122Y188197D02*
Y192569D01*
X486599Y161797D02*
X490057D01*
X524122Y183197D02*
X536728D01*
X539947Y179978D01*
X522652Y138354D02*
X531486D01*
X522800Y167600D02*
X524122Y168922D01*
Y173197D01*
X533400Y170800D02*
X538331D01*
X539947Y172416D01*
Y179978D01*
X527982Y148518D02*
X531968D01*
X524600Y151900D02*
X527982Y148518D01*
X455838Y151558D02*
Y151797D01*
X470138Y137606D02*
X470144Y137600D01*
X460669Y142528D02*
Y146727D01*
X481738Y157597D02*
X482538Y158397D01*
X480969Y149024D02*
X484894Y145100D01*
X488244D01*
Y149988D01*
X489756Y151500D01*
X393934Y178334D02*
X394044Y178444D01*
X413788Y161700D02*
X413800Y161688D01*
X405812Y161700D02*
X413788D01*
X404056Y159944D02*
X405812Y161700D01*
X490869Y248242D02*
X490906Y248206D01*
X479556Y216856D02*
Y217700D01*
X413800Y161688D02*
X416188D01*
X463704Y140344D02*
X466685Y143325D01*
X485015Y248206D02*
X490906D01*
X462794Y168997D02*
X465658Y171861D01*
X463741Y177750D02*
X465658D01*
X463694Y177797D02*
X463741Y177750D01*
X461694Y177797D02*
X463694D01*
X459799D02*
X461694D01*
X459752Y177750D02*
X459799Y177797D01*
X463849Y160242D02*
X465665D01*
X463794Y160297D02*
X463849Y160242D01*
X461694Y160297D02*
X463794D01*
X459827D02*
X461694D01*
X459772Y160242D02*
X459827Y160297D01*
X371900Y223240D02*
Y233944D01*
X370382Y221723D02*
X371900Y223240D01*
X485015Y243678D02*
Y248206D01*
X462142Y236842D02*
Y241173D01*
Y236842D02*
X466473Y241173D01*
X469032Y243732D01*
Y250129D01*
X450556Y262856D02*
X457100D01*
X450400Y262700D02*
X450556Y262856D01*
X463694Y177797D02*
Y183106D01*
X464587Y184000D01*
X465300D01*
X462794Y161297D02*
X463794Y160297D01*
X462794Y161297D02*
Y168997D01*
X473300Y153960D02*
Y157440D01*
X469500Y161240D02*
X473300Y157440D01*
X469500Y161240D02*
Y161817D01*
X408900Y149756D02*
Y156400D01*
X408700Y156600D02*
X408900Y156400D01*
X420656Y139256D02*
X426800D01*
X420400Y139000D02*
X420656Y139256D01*
X507548Y160648D02*
X514500Y167600D01*
X522800D01*
X507700Y138566D02*
Y159500D01*
X502300Y164900D02*
X507700Y159500D01*
X490057Y161797D02*
X493160Y164900D01*
X502300D01*
X487250Y157597D02*
X493897D01*
X495900Y159600D01*
X498644Y154500D02*
X502100D01*
X495400Y151256D02*
X498644Y154500D01*
X490000Y151256D02*
X495400D01*
X489756Y151500D02*
X490000Y151256D01*
X451400Y143894D02*
Y152965D01*
X450661Y130744D02*
X450900D01*
X383556Y174364D02*
Y174723D01*
Y174364D02*
X385660Y172260D01*
X492534Y123400D02*
X507700Y138566D01*
X464187Y123400D02*
X473382D01*
X469838Y143697D02*
X470138Y143997D01*
X469466Y143325D02*
X469838Y143697D01*
X466685Y143325D02*
X469466D01*
X470138Y137606D02*
Y143997D01*
X479876Y149024D02*
X480969D01*
X478531Y150369D02*
Y152276D01*
Y150369D02*
X479876Y149024D01*
X477207Y153600D02*
X478531Y152276D01*
X473500Y153600D02*
X477207D01*
X469744Y149800D02*
Y150405D01*
X473300Y153960D01*
X469838Y143697D02*
Y149938D01*
X489058Y274998D02*
Y281558D01*
X489100Y281600D01*
X378044Y188044D02*
X378500Y188500D01*
X378044Y185600D02*
Y188044D01*
Y185600D02*
X381344Y182300D01*
X394044Y182044D02*
X402553Y190553D01*
X405200Y182100D02*
X405200Y182100D01*
X405200Y179537D02*
Y184000D01*
X404319Y178656D02*
X405200Y179537D01*
X417404Y127300D02*
X437469D01*
X439500Y129331D01*
X434100Y142444D02*
X437944Y138600D01*
X434100Y142444D02*
Y142800D01*
X439444Y145900D02*
Y152200D01*
X440244Y153000D01*
X437944Y144400D02*
X439444Y145900D01*
X437944Y138600D02*
Y144400D01*
X451994Y192053D02*
X452094Y191953D01*
X461650D01*
X464097Y194400D01*
X464900D01*
X473298Y166037D02*
X481738Y157597D01*
X485256Y173000D02*
X491000D01*
X491400Y172600D01*
X514844Y146161D02*
X522652Y138354D01*
X514844Y146161D02*
Y146400D01*
Y155544D01*
X515000Y155700D01*
X520244D02*
Y157644D01*
X533400Y170800D01*
X515000Y155700D02*
X520244D01*
X520356Y146400D02*
Y147656D01*
X524600Y151900D01*
X489012Y231500D02*
X494200D01*
X494200Y231500D02*
X498644D01*
X494200Y231500D02*
X494200Y231500D01*
X492700Y233000D02*
Y238200D01*
Y233000D02*
X494200Y231500D01*
X468800Y212444D02*
X473356D01*
X474700Y210700D02*
Y211100D01*
X473356Y212444D02*
X474700Y211100D01*
X462056Y211700D02*
X468056D01*
X468800Y212444D01*
X393600Y248900D02*
X393900Y248600D01*
Y243456D02*
Y248600D01*
X373900Y169800D02*
X375115Y168585D01*
D34*
X507700Y138566D02*
X509200Y137066D01*
Y132656D02*
Y137066D01*
X383556Y174723D02*
Y179000D01*
X386856Y182300D01*
D35*
X382044Y162172D02*
X385307Y165435D01*
X385666D01*
X383069Y170519D02*
X383428Y170160D01*
X385666D01*
X415300Y132200D02*
X425256D01*
X426200Y185200D02*
X426900Y184500D01*
X412044Y173144D02*
X414100Y175200D01*
Y185600D01*
X426900Y163800D02*
Y184500D01*
X461158Y223554D02*
X461534Y223178D01*
X462466Y220584D02*
X464128D01*
X456544Y211700D02*
X459031Y214187D01*
Y223396D02*
X459189Y223554D01*
X445328Y206628D02*
X457700D01*
X444656Y207300D02*
X445328Y206628D01*
X444856Y207500D02*
Y213025D01*
X444656Y207300D02*
X444856Y207500D01*
X445225Y203375D02*
X457044D01*
X444656Y203944D02*
X445225Y203375D01*
X444656Y203944D02*
Y207300D01*
X444856Y213025D02*
X451381D01*
X456356Y218000D01*
X455252Y219104D02*
X456356Y218000D01*
X455252Y219104D02*
Y223554D01*
X457221Y218865D02*
Y223554D01*
X456356Y218000D02*
X457221Y218865D01*
X469631Y168137D02*
X477163D01*
X469500Y168006D02*
X469631Y168137D01*
X429600Y148700D02*
Y151306D01*
X489300Y188600D02*
X489800Y188100D01*
X497762D01*
X442898Y238342D02*
X443056Y238500D01*
X442898Y231942D02*
Y238342D01*
X473788Y217956D02*
X474044Y217700D01*
X468800Y217956D02*
X473788D01*
X475806Y229576D02*
X477619D01*
X475429Y229952D02*
X475806Y229576D01*
X475806Y227607D02*
X477467D01*
X475429Y227984D02*
X475806Y227607D01*
X482856Y264700D02*
X482998Y264558D01*
X489386D01*
X471200Y270100D02*
X471544Y269756D01*
X470998Y264658D02*
X471040Y264700D01*
X477344D01*
X430086Y234098D02*
X435142Y229042D01*
X442898Y231942D02*
X444888Y229952D01*
X435142Y229042D02*
X439998D01*
X481615Y243732D02*
X481669Y243678D01*
X475429Y245700D02*
Y246076D01*
X378144Y175444D02*
X383069Y170519D01*
X382044Y159944D02*
Y162172D01*
X447094Y188897D02*
Y196197D01*
X459349Y197697D02*
X459850Y198197D01*
X497762Y188100D02*
X502665Y183197D01*
X499094D02*
X502665D01*
X498094Y182197D02*
X499094Y183197D01*
X498094Y175197D02*
Y182197D01*
Y175197D02*
X500094Y173197D01*
X502665D01*
X371800Y189300D02*
X375369Y185731D01*
X489058Y269486D02*
X489114Y269542D01*
X372600Y153856D02*
Y162100D01*
X371244Y152500D02*
X372600Y153856D01*
X494898Y264558D02*
X501138D01*
X501238Y264658D01*
X444888Y229952D02*
X448854D01*
X439998Y229042D02*
X442898Y231942D01*
X448594Y197697D02*
X453838D01*
X375556Y175444D02*
X378144D01*
X375369D02*
X375556D01*
X475350Y144297D02*
X475650Y143997D01*
X475350Y144297D02*
Y148997D01*
X461356Y151800D02*
X461700D01*
X475650Y134450D02*
Y143997D01*
X482400Y151500D02*
X484244D01*
X478000Y155900D02*
X482400Y151500D01*
X478000Y155900D02*
Y158365D01*
X472296Y164068D02*
X478000Y158365D01*
X469500Y164068D02*
X472296D01*
X447094Y196197D02*
X448594Y197697D01*
X455600Y163751D02*
X455917Y164068D01*
X453789Y163751D02*
X455600D01*
X452317Y162280D02*
X453789Y163751D01*
X447200Y153000D02*
X452317Y158117D01*
Y162280D01*
X415244Y148244D02*
X415300Y148300D01*
Y150300D01*
X426900Y152300D02*
X427200Y152000D01*
X428906D01*
X429600Y151306D01*
X426900Y148300D02*
X429200D01*
X429600Y148700D01*
X415300Y150300D02*
Y150600D01*
X412650Y151244D02*
X413294Y150600D01*
X412650Y151244D02*
Y153356D01*
X475429Y226015D02*
X476844Y224600D01*
X477467Y227607D02*
X478874Y226200D01*
X477619Y229576D02*
X479495Y227700D01*
X476844Y224600D02*
X493100D01*
X478874Y226200D02*
X494800D01*
X375369Y175444D02*
Y185731D01*
X445156Y185200D02*
X446138Y184218D01*
X439644Y185200D02*
Y194113D01*
X440000Y194469D01*
X439538Y179582D02*
X445156Y185200D01*
X435400Y170591D02*
Y180956D01*
X429700Y164891D02*
X435400Y170591D01*
Y180956D02*
X439644Y185200D01*
X413294Y150600D02*
X415300D01*
X429700Y160900D02*
Y164891D01*
Y160900D02*
X431300Y159300D01*
X429342Y234098D02*
X430086D01*
X456794Y185394D02*
Y186441D01*
X450400Y179000D02*
X456794Y185394D01*
X450400Y176400D02*
Y179000D01*
X383610Y167010D02*
X385666D01*
X378700Y162100D02*
X383610Y167010D01*
X372600Y162100D02*
X378700D01*
X399500Y173144D02*
X412044D01*
X393934Y170160D02*
X396516D01*
X399500Y173144D01*
X400391Y168585D02*
X402044Y166931D01*
X461158Y221893D02*
X462466Y220584D01*
X461158Y221893D02*
Y223554D01*
X423349Y229438D02*
X429342D01*
X413900Y219989D02*
X423349Y229438D01*
X413900Y219656D02*
Y219989D01*
X431421Y220600D02*
X439509D01*
X442809Y223900D01*
X446739D01*
X448854Y226015D01*
X421579Y220600D02*
X423500D01*
X429663Y226763D01*
X439840D01*
X441061Y227984D01*
X448854D01*
X431787Y248300D02*
X436013D01*
X440957Y243355D01*
X448478D01*
X448854Y243732D01*
X440734Y245700D02*
X448854D01*
X436634Y249800D02*
X440734Y245700D01*
X431000Y249800D02*
X436634D01*
X430379Y251300D02*
X437255D01*
X441263Y247292D01*
X448478D01*
X448854Y247669D01*
X440428Y241763D02*
X448854D01*
X435391Y246800D02*
X440428Y241763D01*
X432409Y246800D02*
X435391D01*
X403700Y203250D02*
X408662D01*
X426912Y185000D01*
X393150Y192700D02*
X403700Y203250D01*
X371300Y209211D02*
Y214737D01*
X375053Y218490D01*
X371300Y209211D02*
X375111Y205400D01*
X401897Y217603D02*
X403212D01*
X399347Y215053D02*
X401897Y217603D01*
X399347Y210447D02*
Y215053D01*
X394300Y205400D02*
X399347Y210447D01*
X375111Y205400D02*
X394300D01*
X401706Y220706D02*
X404194D01*
X405200Y213200D02*
X413013D01*
X413957Y214144D01*
X403700Y213400D02*
X404444Y214144D01*
X392500Y192700D02*
X393150D01*
X375053Y221894D02*
X379848Y226689D01*
X375053Y218490D02*
Y221894D01*
X384671Y212741D02*
Y225803D01*
Y212741D02*
X385600Y211811D01*
X395311D01*
X396500Y213000D01*
Y215500D01*
X401706Y220706D01*
X398800Y228700D02*
X399150Y229050D01*
X396700Y228700D02*
X398800D01*
X394689Y226689D02*
X396700Y228700D01*
X387525Y226689D02*
X394689D01*
X403212Y217603D02*
X432409Y246800D01*
X404194Y220706D02*
X431787Y248300D01*
X410250Y229050D02*
X431000Y249800D01*
X399150Y229050D02*
X410250D01*
X387525Y228658D02*
X390872D01*
X395267Y233053D01*
X407400D01*
X387525Y230626D02*
X387803Y230904D01*
X389111D01*
X393900Y235693D01*
Y237944D01*
X372986Y239456D02*
X379848Y232595D01*
X371900Y239456D02*
X372986D01*
X384671Y233480D02*
Y246129D01*
X383600Y247200D02*
X384671Y246129D01*
X407400Y233053D02*
X418512Y244165D01*
Y245200D01*
X424279D02*
X430379Y251300D01*
X418512Y245200D02*
X424279D01*
X437876Y252800D02*
X440547Y250129D01*
X411800Y252800D02*
X437876D01*
X404800Y245800D02*
X411800Y252800D01*
X440547Y250129D02*
X451315D01*
X396944Y237944D02*
X404800Y245800D01*
X393900Y237944D02*
X396944D01*
X453284Y250129D02*
Y252769D01*
X451752Y254300D02*
X453284Y252769D01*
X390700Y254300D02*
X451752D01*
X383600Y247200D02*
X390700Y254300D01*
X371900Y239456D02*
Y244500D01*
X459031Y214187D02*
Y223396D01*
X464128Y220584D02*
X466756Y217956D01*
X468800D01*
X493100Y224600D02*
X500738Y216962D01*
Y207900D02*
Y216962D01*
Y207900D02*
X532600D01*
X535900Y204600D01*
X518300Y214600D02*
X535900D01*
X516700Y213000D02*
X518300Y214600D01*
X508000Y213000D02*
X516700D01*
X494800Y226200D02*
X508000Y213000D01*
X479495Y227700D02*
X514438D01*
X515700Y228962D01*
X475429Y245700D02*
X479163D01*
X481669Y248206D01*
X520300Y234600D02*
X535900D01*
X475429Y243732D02*
X481615D01*
X492360Y251842D02*
X499279Y244923D01*
X507638D01*
X509977D01*
X520300Y234600D01*
X531753Y228747D02*
X535900Y224600D01*
X515700Y228962D02*
X515914Y228747D01*
X531753D01*
X538031Y230247D02*
X539789Y228489D01*
X522531Y230247D02*
X538031D01*
X519464Y233314D02*
X522531Y230247D01*
X505970Y233314D02*
X519464D01*
X474044Y216456D02*
X474600Y215900D01*
X474044Y216456D02*
Y217700D01*
X360500Y202700D02*
X396400D01*
X403200Y209500D01*
X463126Y250129D02*
Y252418D01*
X470998Y264658D02*
Y269898D01*
X471200Y270100D01*
X489386Y264558D02*
Y269158D01*
X489058Y269486D02*
X489386Y269158D01*
X458200Y257344D02*
X463126Y252418D01*
X457100Y257344D02*
X458200D01*
X465095Y250129D02*
Y264361D01*
X465439Y264705D02*
X465486Y264658D01*
X465095Y264361D02*
X465439Y264705D01*
X465600Y155700D02*
X469100D01*
X461700Y151800D02*
X465600Y155700D01*
X412650Y153356D02*
X415794Y156500D01*
X419600D01*
X426900Y163800D01*
X408900Y144244D02*
X409044D01*
X413044Y148244D01*
X415244D01*
X470044Y128500D02*
Y131744D01*
X471300Y133000D01*
X474200D01*
X475650Y134450D01*
X447094Y188897D02*
X449446Y186544D01*
X451200D01*
X445050Y178897D02*
X447553Y181400D01*
X449800D01*
X451200Y182800D01*
Y186544D01*
X450400Y176400D02*
X452889Y173911D01*
X455917D01*
X445050Y178897D02*
X452004Y171942D01*
X455917D01*
X429600Y137154D02*
X429672Y137225D01*
Y141286D01*
X429600Y141358D02*
X429672Y141286D01*
X429600Y141358D02*
Y148700D01*
X425256Y132200D02*
X426800Y133744D01*
X429600Y136544D01*
Y137154D01*
X443456Y138600D02*
Y144400D01*
X444956Y145900D01*
Y152200D01*
X445756Y153000D01*
X447200D01*
X441827Y156928D02*
X445756Y153000D01*
X437214Y156928D02*
X441827D01*
X434842Y159300D02*
X437214Y156928D01*
X431300Y159300D02*
X434842D01*
X444756Y159800D02*
X450993Y166037D01*
X455917D01*
X446487Y168006D02*
X455917D01*
X444956Y166474D02*
X446487Y168006D01*
X455917Y175880D02*
Y179717D01*
X468600Y192400D01*
X466194Y198197D02*
X468600Y195791D01*
X459850Y198197D02*
X466194D01*
X468600Y192400D02*
Y195791D01*
X486400Y188600D02*
X489300D01*
X469500Y171942D02*
X471943D01*
X479000Y179000D02*
X482244D01*
X482644Y179400D01*
X469500Y173911D02*
X471711D01*
X486400Y188600D01*
X471943Y171942D02*
X479000Y179000D01*
X477600Y167700D02*
Y168130D01*
X477163Y168137D02*
X477600Y167700D01*
X475121Y173000D02*
X479744D01*
X472413Y170291D02*
X475121Y173000D01*
X469817Y170291D02*
X472413D01*
X469500Y169974D02*
X469817Y170291D01*
X488156Y179400D02*
X492300D01*
X495200Y176500D01*
Y171309D02*
Y176500D01*
X492891Y169000D02*
X495200Y171309D01*
X490953Y169000D02*
X492891D01*
X488050Y166097D02*
X490953Y169000D01*
X504156Y231500D02*
X505970Y233314D01*
X504156Y231500D02*
Y234844D01*
X496900Y242100D02*
X504156Y234844D01*
X491088Y242100D02*
X496900D01*
X487188Y238200D02*
X491088Y242100D01*
X481586Y238200D02*
X487188D01*
X478399Y241387D02*
X481586Y238200D01*
X475806Y241387D02*
X478399D01*
X475429Y241763D02*
X475806Y241387D01*
X483500Y231500D02*
Y236286D01*
X481586Y238200D02*
X483500Y236286D01*
X477800Y212700D02*
Y213091D01*
X474600Y215900D02*
X474991D01*
X477800Y213091D01*
X475429Y247669D02*
X479602Y251842D01*
X492360D01*
X393934Y168585D02*
X400391D01*
X375115D02*
X385666D01*
X391375Y167010D02*
X393934D01*
D36*
X387556Y159944D02*
Y159944D01*
X407556Y166944D02*
X407812Y167200D01*
X399556Y178444D02*
Y178444D01*
X387556Y159944D02*
X398544D01*
X407812Y167200D02*
X413800D01*
X389800Y168585D02*
X391375Y167010D01*
X437600Y266200D02*
X462500Y291100D01*
X463000D02*
X524900D01*
X524400Y266400D02*
Y290500D01*
X524000Y266600D02*
X551400D01*
X551700Y110100D02*
Y266500D01*
X348500Y110801D02*
X551800Y110400D01*
X348300Y111000D02*
Y266400D01*
X348200Y266000D02*
X436800D01*
D37*
X524122Y183197D02*
Y188197D01*
Y178197D02*
X532994D01*
X534994Y176197D01*
X531994Y173197D02*
X534994Y176197D01*
X384400Y184756D02*
Y196300D01*
X381100Y199600D02*
X384400Y196300D01*
X366700Y199600D02*
X381100D01*
X363900Y196800D02*
X366700Y199600D01*
X363900Y144400D02*
Y196800D01*
X486300Y196000D02*
X520690D01*
X524122Y192569D01*
Y173197D02*
X531994D01*
X457676Y123247D02*
X457728Y123300D01*
X451400Y152965D02*
X455917Y157483D01*
X363900Y144400D02*
X384900Y123400D01*
X473382D02*
X492534D01*
X384900D02*
X464187D01*
X384400Y184756D02*
X386856Y182300D01*
D38*
X455838Y151558D02*
X460669Y146727D01*
X424100Y146300D02*
X426900D01*
X450900Y136256D02*
X454396D01*
X460669Y142528D01*
X421100Y149300D02*
X424100Y146300D01*
X379848Y228658D02*
Y230626D01*
X375218D02*
X379848D01*
X371900Y233944D02*
X375218Y230626D01*
X382702Y224302D02*
Y225803D01*
X380000Y221600D02*
X382702Y224302D01*
X387525Y232595D02*
Y235325D01*
X388400Y236200D01*
X467063Y250129D02*
X469032D01*
X470777D01*
X455917Y157483D02*
Y158820D01*
X447428Y139922D02*
X451400Y143894D01*
X447428Y133977D02*
X450661Y130744D01*
X447428Y133977D02*
Y139922D01*
X455917Y158820D02*
X455917Y158820D01*
X455917Y158820D02*
Y162051D01*
X455600D02*
X455917D01*
X495400Y144900D02*
Y145744D01*
X486000Y135500D02*
X495400Y144900D01*
X479000Y128500D02*
X486000Y135500D01*
X450900Y130744D02*
X455356D01*
X475229Y128500D02*
X479000D01*
X473429Y126700D02*
X475229Y128500D01*
X459400Y126700D02*
X473429D01*
X455356Y130744D02*
X459400Y126700D01*
X439244Y159800D02*
X439444Y160000D01*
X436900Y159800D02*
X439244D01*
X433300Y163400D02*
X436900Y159800D01*
X444956Y172200D02*
X449342D01*
X451568Y169974D01*
X455917D01*
X439444Y166474D02*
Y172200D01*
Y160000D02*
Y166474D01*
D39*
X393934Y172094D02*
Y178334D01*
D40*
X469500Y166037D02*
X473298D01*
D41*
X422600Y201562D02*
D03*
X534994Y176197D02*
D03*
X515700Y228962D02*
D03*
X426912Y185000D02*
D03*
X414100Y185600D02*
D03*
X392500Y192700D02*
D03*
X371300Y208911D02*
D03*
X372600Y162100D02*
D03*
X398800Y228700D02*
D03*
X371800Y189300D02*
D03*
X489300Y188669D02*
D03*
X385600Y211811D02*
D03*
X418512Y245200D02*
D03*
X383600Y247200D02*
D03*
X404800Y245800D02*
D03*
X507638Y244923D02*
D03*
X515000Y155869D02*
D03*
X440000Y194469D02*
D03*
X380600Y136500D02*
D03*
X370382Y221723D02*
D03*
X522300Y130200D02*
D03*
X395300Y132200D02*
D03*
X460669Y142528D02*
D03*
X486000Y135500D02*
D03*
D42*
X516700Y213000D02*
D03*
X405200Y203200D02*
D03*
X500738Y207900D02*
D03*
X439500Y129331D02*
D03*
X535900Y234600D02*
D03*
X523600Y243900D02*
D03*
D43*
X405200Y213200D02*
D03*
X415300Y132200D02*
D03*
X405300D02*
D03*
X535900Y194600D02*
D03*
Y244600D02*
D03*
Y224600D02*
D03*
Y214600D02*
D03*
Y204600D02*
D03*
D44*
X444300Y220300D02*
D03*
X433900Y243200D02*
D03*
X472000Y281700D02*
D03*
X432700Y208000D02*
D03*
X475700Y205300D02*
D03*
X485100Y217600D02*
D03*
X507242Y277442D02*
D03*
X373900Y169800D02*
D03*
X489100Y281600D02*
D03*
X383100Y152500D02*
D03*
X378500Y188500D02*
D03*
X524600Y151900D02*
D03*
X490869Y248242D02*
D03*
X371900Y244500D02*
D03*
X380000Y221600D02*
D03*
X388400Y236200D02*
D03*
X450400Y262700D02*
D03*
X465300Y184000D02*
D03*
X469100Y155700D02*
D03*
X408700Y156600D02*
D03*
X420400Y139000D02*
D03*
X502100Y154500D02*
D03*
X495900Y159600D02*
D03*
X455917Y157483D02*
D03*
X433300Y163400D02*
D03*
X405200Y184000D02*
D03*
X434100Y142800D02*
D03*
X464900Y194400D02*
D03*
X491400Y172600D02*
D03*
X477600Y167700D02*
D03*
X494200Y231500D02*
D03*
X474700Y210700D02*
D03*
X393600Y248900D02*
D03*
X462794Y168997D02*
D03*
X389800Y168685D02*
D03*
X421200Y147500D02*
D03*
X421100Y151200D02*
D03*
X455911Y242372D02*
D03*
X462142Y242572D02*
D03*
X468073Y242473D02*
D03*
X456011Y236842D02*
D03*
X462142D02*
D03*
X468073D02*
D03*
X456011Y230811D02*
D03*
X462142Y230711D02*
D03*
X468173D02*
D03*
M02*
