G04 Layer_Color=16711935*
%FSLAX25Y25*%
%MOIN*%
G70*
G01*
G75*
%ADD36C,0.01000*%
%ADD76R,0.06706X0.06706*%
%ADD77R,0.06706X0.06706*%
%ADD78C,0.06706*%
%ADD79C,0.03200*%
%ADD80R,0.20485X0.04737*%
D36*
X437600Y266200D02*
X462500Y291100D01*
X463000D02*
X524900D01*
X524400Y266400D02*
Y290500D01*
X524000Y266600D02*
X551400D01*
X551700Y110100D02*
Y266500D01*
X348500Y110801D02*
X551800Y110400D01*
X348300Y111000D02*
Y266400D01*
X348200Y266000D02*
X436800D01*
D76*
X422600Y201562D02*
D03*
X534994Y176197D02*
D03*
X515700Y228962D02*
D03*
X426912Y185000D02*
D03*
X414100Y185600D02*
D03*
X392500Y192700D02*
D03*
X371300Y208911D02*
D03*
X372600Y162100D02*
D03*
X398800Y228700D02*
D03*
X371800Y189300D02*
D03*
X489300Y188669D02*
D03*
X385600Y211811D02*
D03*
X418512Y245200D02*
D03*
X383600Y247200D02*
D03*
X404800Y245800D02*
D03*
X507638Y244923D02*
D03*
X515000Y155869D02*
D03*
X440000Y194469D02*
D03*
X380600Y136500D02*
D03*
X370382Y221723D02*
D03*
X522300Y130200D02*
D03*
X395300Y132200D02*
D03*
X460669Y142528D02*
D03*
X486000Y135500D02*
D03*
D77*
X516700Y213000D02*
D03*
X405200Y203200D02*
D03*
X500738Y207900D02*
D03*
X439500Y129331D02*
D03*
X535900Y234600D02*
D03*
X523600Y243900D02*
D03*
D78*
X405200Y213200D02*
D03*
X415300Y132200D02*
D03*
X405300D02*
D03*
X535900Y194600D02*
D03*
Y244600D02*
D03*
Y224600D02*
D03*
Y214600D02*
D03*
Y204600D02*
D03*
D79*
X444300Y220300D02*
D03*
X433900Y243200D02*
D03*
X472000Y281700D02*
D03*
X432700Y208000D02*
D03*
X475700Y205300D02*
D03*
X485100Y217600D02*
D03*
X507242Y277442D02*
D03*
X373900Y169800D02*
D03*
X489100Y281600D02*
D03*
X383100Y152500D02*
D03*
X378500Y188500D02*
D03*
X524600Y151900D02*
D03*
X490869Y248242D02*
D03*
X371900Y244500D02*
D03*
X380000Y221600D02*
D03*
X388400Y236200D02*
D03*
X450400Y262700D02*
D03*
X465300Y184000D02*
D03*
X469100Y155700D02*
D03*
X408700Y156600D02*
D03*
X420400Y139000D02*
D03*
X502100Y154500D02*
D03*
X495900Y159600D02*
D03*
X455917Y157483D02*
D03*
X433300Y163400D02*
D03*
X405200Y184000D02*
D03*
X434100Y142800D02*
D03*
X464900Y194400D02*
D03*
X491400Y172600D02*
D03*
X477600Y167700D02*
D03*
X494200Y231500D02*
D03*
X474700Y210700D02*
D03*
X393600Y248900D02*
D03*
X462794Y168997D02*
D03*
X389800Y168685D02*
D03*
X421200Y147500D02*
D03*
X421100Y151200D02*
D03*
X455911Y242372D02*
D03*
X462142Y242572D02*
D03*
X468073Y242473D02*
D03*
X456011Y236842D02*
D03*
X462142D02*
D03*
X468073D02*
D03*
X456011Y230811D02*
D03*
X462142Y230711D02*
D03*
X468173D02*
D03*
D80*
X376300Y145800D02*
D03*
Y171300D02*
D03*
M02*
